<?xml version="1.0" encoding="utf-8"?>
<!-- Generator: Adobe Illustrator 24.1.2, SVG Export Plug-In . SVG Version: 6.00 Build 0)  -->
<svg version="1.1" id="Layer_1" xmlns="http://www.w3.org/2000/svg" xmlns:xlink="http://www.w3.org/1999/xlink" x="0px" y="0px"
	 viewBox="0 0 80.2 80.2" style="enable-background:new 0 0 80.2 80.2;" xml:space="preserve">
<style type="text/css">
	.st0{fill:#6698A4;}
	.st1{fill:#FFFFFF;}
</style>
<g id="Layer_2_1_">
	<g id="Design">
		<circle class="st0" cx="40.1" cy="40.1" r="40.1"/>
		<circle class="st1" cx="54.3" cy="26.1" r="3.1"/>
		<path class="st1" d="M40.5,27c-7.2,0-13.1,5.9-13.1,13.1s5.9,13.1,13.1,13.1s13.1-5.8,13.1-13.1C53.5,32.9,47.7,27,40.5,27z
			 M40.5,48.5c-4.6,0-8.4-3.8-8.4-8.4s3.8-8.4,8.4-8.4s8.4,3.8,8.4,8.4l0,0C48.8,44.7,45.1,48.5,40.5,48.5L40.5,48.5L40.5,48.5z"/>
		<path class="st1" d="M50.8,66.7H29.6c-8.8,0-16-7.2-16-16V29.5c0-8.8,7.2-16,16-16h21.2c8.8,0,16,7.2,16,16v21.2
			C66.8,59.5,59.7,66.7,50.8,66.7z M29.6,18.5c-6.1,0-11,4.9-11,11v21.2c0,6.1,4.9,11,11,11h21.2c6.1,0,11-4.9,11-11l0,0V29.5
			c0-6.1-4.9-11-11-11H29.6z"/>
	</g>
</g>
</svg>
