<svg width="135" height="104" viewBox="0 0 135 104" fill="none" xmlns="http://www.w3.org/2000/svg">
<g filter="url(#filter0_d)">
<path fill-rule="evenodd" clip-rule="evenodd" d="M95.2074 30.0093C89.3259 24.3274 75.4104 25.1277 62.0666 32.3777C47.1765 40.4679 38.6371 53.5257 42.9932 61.5432C47.3492 69.5608 62.9514 69.5018 77.8415 61.4116C89.4078 55.1274 97.1423 45.8457 97.9774 38.2574C99.1962 37.4522 100 36.07 100 34.4999C100 32.0146 97.9855 29.9999 95.5002 29.9999C95.4018 29.9999 95.3042 30.0031 95.2074 30.0093ZM92.9976 30.7595C91.7931 31.567 91.0002 32.9408 91.0002 34.4999C91.0002 36.9852 93.015 38.9999 95.5002 38.9999C95.6164 38.9999 95.7316 38.9955 95.8456 38.9869C95.4547 41.0326 94.4954 43.3008 92.9219 45.7069C89.6844 50.6572 84.0992 55.7355 76.8867 59.6542C69.6743 63.573 62.3745 65.4955 56.4596 65.5178C50.4521 65.5405 46.4091 63.6408 44.7505 60.5884C43.092 57.536 43.6984 53.1101 46.9864 48.0824C50.2238 43.1321 55.8091 38.0537 63.0215 34.135C70.234 30.2163 77.5338 28.2938 83.4487 28.2714C87.631 28.2557 90.8612 29.1715 92.9976 30.7595Z" fill="#1B3245"/>
<path fill-rule="evenodd" clip-rule="evenodd" d="M22.7217 71.987C22.0176 70.6911 21.5314 69.309 21.2516 67.8576C18.8155 67.2921 17.0002 65.1079 17.0002 62.4999C17.0002 59.4823 19.4305 57.0321 22.4407 57.0002C26.4357 45.9236 38.2696 33.5115 54.6866 24.5917C79.2972 11.2201 104.888 10.76 111.844 23.5641C118.801 36.3682 104.49 57.5878 79.8795 70.9594C55.2689 84.331 29.6785 84.7911 22.7217 71.987ZM110.087 24.519C113.029 29.9333 111.674 37.5789 106.042 45.9306C100.471 54.1906 91.0063 62.6377 78.9247 69.202C66.843 75.7663 54.6058 79.1103 44.6444 79.2894C34.5724 79.4704 27.4208 76.4466 24.479 71.0321C23.9557 70.0691 23.5684 69.0354 23.3169 67.9397C25.9672 67.5451 28.0002 65.26 28.0002 62.4999C28.0002 60.1449 26.5201 58.1356 24.4393 57.3515C25.3649 54.8794 26.7268 52.2859 28.5245 49.6205C34.0953 41.3604 43.5598 32.9134 55.6415 26.3491C67.7231 19.7848 79.9603 16.4408 89.9217 16.2617C99.9938 16.0807 107.145 19.1045 110.087 24.519Z" fill="#1B3245"/>
<path fill-rule="evenodd" clip-rule="evenodd" d="M120.857 51.4399C113.089 62.5367 100.807 73.3876 85.4276 81.7437C52.1252 99.8377 16.9114 99.3825 6.77526 80.7268C-3.36097 62.0711 15.4189 32.2795 48.7213 14.1855C82.0237 -3.9086 117.238 -3.45333 127.374 15.2024C131.237 22.3136 130.9 31.0429 127.157 40.1256C128.874 41.2957 130 43.2663 130 45.4999C130 49.0898 127.09 51.9999 123.5 51.9999C122.559 51.9999 121.664 51.7998 120.857 51.4399ZM119.176 50.3531C117.841 49.1627 117 47.4295 117 45.4999C117 41.9101 119.91 38.9999 123.5 38.9999C124.143 38.9999 124.764 39.0932 125.35 39.2671C128.898 30.6035 129.088 22.5479 125.616 16.1572C121.048 7.74991 110.614 3.09238 96.709 2.91257C82.8777 2.73374 66.0839 7.02811 49.6761 15.9428C33.2684 24.8576 20.5271 36.6105 13.1508 48.312C5.7351 60.076 3.96472 71.3647 8.53259 79.7719C13.1005 88.1792 23.5349 92.8368 37.4399 93.0166C51.2712 93.1954 68.0651 88.9011 84.4728 79.9864C99.6014 71.7665 111.613 61.1337 119.176 50.3531Z" fill="#1B3245"/>
</g>
<defs>
<filter id="filter0_d" x="0.0273438" y="0.907227" width="134.094" height="102.115" filterUnits="userSpaceOnUse" color-interpolation-filters="sRGB">
<feFlood flood-opacity="0" result="BackgroundImageFix"/>
<feColorMatrix in="SourceAlpha" type="matrix" values="0 0 0 0 0 0 0 0 0 0 0 0 0 0 0 0 0 0 127 0"/>
<feOffset dy="4"/>
<feGaussianBlur stdDeviation="2"/>
<feColorMatrix type="matrix" values="0 0 0 0 0 0 0 0 0 0 0 0 0 0 0 0 0 0 0.25 0"/>
<feBlend mode="normal" in2="BackgroundImageFix" result="effect1_dropShadow"/>
<feBlend mode="normal" in="SourceGraphic" in2="effect1_dropShadow" result="shape"/>
</filter>
</defs>
</svg>
