<?xml version="1.0" encoding="utf-8"?>
<!-- Generator: Adobe Illustrator 24.1.2, SVG Export Plug-In . SVG Version: 6.00 Build 0)  -->
<svg version="1.1" id="Layer_1" xmlns="http://www.w3.org/2000/svg" xmlns:xlink="http://www.w3.org/1999/xlink" x="0px" y="0px"
	 viewBox="0 0 80.2 80.2" style="enable-background:new 0 0 80.2 80.2;" xml:space="preserve">
<style type="text/css">
	.st0{fill:#6698A4;}
	.st1{fill:#FFFFFF;}
	.st2{fill-rule:evenodd;clip-rule:evenodd;fill:#FFFFFF;}
</style>
<g id="Layer_2_1_">
	<g id="Design">
		<circle class="st0" cx="40.1" cy="40.1" r="40.1"/>
		<path class="st1" d="M64.5,24.6c-1.6,0.7-3.3,1.2-5,1.4c0.8-0.1,2-1.6,2.5-2.2c0.7-0.9,1.3-1.9,1.7-3c0-0.1,0.1-0.2,0-0.3
			c-0.1,0-0.2,0-0.3,0c-1.9,1-3.9,1.8-5.9,2.3c-0.1,0-0.3,0-0.4-0.1c-0.2-0.2-0.3-0.4-0.5-0.5c-0.9-0.7-1.8-1.3-2.9-1.8
			c-1.4-0.6-2.9-0.8-4.4-0.7c-3,0.2-5.7,1.6-7.5,3.9c-1,1.2-1.6,2.5-2,4c-0.3,1.4-0.4,2.9-0.1,4.3c0,0.2,0,0.3-0.2,0.2
			c-8.3-1.1-15.1-4-20.5-10.2c-0.2-0.3-0.4-0.3-0.6,0c-2.4,3.6-1.2,9.4,1.8,12.2c0.4,0.4,0.8,0.8,1.3,1.1c-1.4-0.1-2.7-0.5-3.9-1.1
			c-0.2-0.2-0.4-0.1-0.4,0.2c0,0.4,0,0.8,0.1,1.2c0.5,3.7,2.9,6.9,6.4,8.4c0.4,0.2,0.9,0.3,1.3,0.4c-1.3,0.2-2.6,0.3-3.9,0.1
			c-0.3-0.1-0.4,0.1-0.3,0.3c1.7,4.6,5.4,6,8.1,6.8c0.4,0.1,0.7,0.1,1.1,0.2l-0.1,0.1c-0.9,1.4-4.1,2.4-5.5,2.9
			c-2.7,1-5.5,1.3-8.4,1.1c-0.4-0.1-0.5-0.1-0.7,0s0,0.2,0.1,0.3c0.6,0.4,1.2,0.7,1.7,1c1.8,0.9,3.7,1.7,5.6,2.2
			c10.1,2.8,21.5,0.7,29-6.8c6-5.9,8-14.1,8-22.2c0-0.3,0.4-0.5,0.6-0.7c1.5-1.2,2.8-2.6,3.9-4.1c0.2-0.2,0.3-0.5,0.2-0.8l0,0
			C64.7,24.5,64.7,24.5,64.5,24.6z"/>
		<path class="st2" d="M29.9,60.3"/>
		<path class="st2" d="M29.9,60.3"/>
		<path class="st2" d="M31.6,60.3C31.6,60.2,32.5,60.3,31.6,60.3C31.6,60.3,31.7,60.3,31.6,60.3z"/>
		<path class="st2" d="M49.1,19.8c-0.1,0-0.1,0-0.2,0H49.1z"/>
	</g>
</g>
</svg>
