<?xml version="1.0" encoding="utf-8"?>
<!-- Generator: Adobe Illustrator 24.1.2, SVG Export Plug-In . SVG Version: 6.00 Build 0)  -->
<svg version="1.1" id="Layer_1" xmlns="http://www.w3.org/2000/svg" xmlns:xlink="http://www.w3.org/1999/xlink" x="0px" y="0px"
	 viewBox="0 0 80.2 80.2" style="enable-background:new 0 0 80.2 80.2;" xml:space="preserve">
<style type="text/css">
	.st0{fill:#6698A4;}
	.st1{fill:#FFFFFF;}
</style>
<g id="Layer_2_1_">
	<g id="Design">
		<circle class="st0" cx="40.1" cy="40.1" r="40.1"/>
		<path class="st1" d="M65.5,33.7c0-6-4.9-10.9-10.9-10.9H26.4c-6,0-10.9,4.9-10.9,10.9l0,0v13.2c0,6,4.9,10.9,10.9,10.9h28.2
			c6,0,10.9-4.9,10.9-10.9V33.7z M47.7,41l-11.3,6.1c-0.5,0.3-0.9-0.1-0.9-0.7V33.8c0-0.6,0.5-0.9,0.9-0.6l11.3,6.5
			c0.4,0.2,0.5,0.6,0.3,1C48,40.8,47.8,40.9,47.7,41z"/>
	</g>
</g>
</svg>
